<svg width="34" height="34" viewBox="0 0 34 34" fill="none" xmlns="http://www.w3.org/2000/svg">
<path d="M24.2656 20.3594H29.8906C30.2031 18.901 30.3594 17.7812 30.3594 17C30.3594 16.2188 30.2031 15.099 29.8906 13.6406H24.2656C24.4219 14.7344 24.5 15.8542 24.5 17C24.5 18.1458 24.4219 19.2656 24.2656 20.3594ZM21.2969 29.5781C22.599 29.1615 23.9531 28.3802 25.3594 27.2344C26.7656 26.0365 27.8333 24.8385 28.5625 23.6406H23.6406C23.1198 25.724 22.3385 27.7031 21.2969 29.5781ZM20.9062 20.3594C21.0625 19.2656 21.1406 18.1458 21.1406 17C21.1406 15.8542 21.0625 14.7344 20.9062 13.6406H13.0938C12.9375 14.7344 12.8594 15.8542 12.8594 17C12.8594 18.1458 12.9375 19.2656 13.0938 20.3594H20.9062ZM17 30.2812C18.4583 28.1458 19.526 25.9323 20.2031 23.6406H13.7969C14.474 25.9323 15.5417 28.1458 17 30.2812ZM10.3594 10.3594C10.9844 8.11979 11.7656 6.14062 12.7031 4.42188C11.401 4.83854 10.0208 5.64583 8.5625 6.84375C7.15625 7.98958 6.11458 9.16146 5.4375 10.3594H10.3594ZM5.4375 23.6406C6.11458 24.8385 7.15625 26.0365 8.5625 27.2344C10.0208 28.3802 11.401 29.1615 12.7031 29.5781C11.6615 27.7031 10.8802 25.724 10.3594 23.6406H5.4375ZM4.10938 20.3594H9.73438C9.57812 19.2656 9.5 18.1458 9.5 17C9.5 15.8542 9.57812 14.7344 9.73438 13.6406H4.10938C3.79688 15.099 3.64062 16.2188 3.64062 17C3.64062 17.7812 3.79688 18.901 4.10938 20.3594ZM17 3.71875C15.5417 5.85417 14.474 8.06771 13.7969 10.3594H20.2031C19.526 8.06771 18.4583 5.85417 17 3.71875ZM28.5625 10.3594C27.8333 9.16146 26.7656 7.98958 25.3594 6.84375C23.9531 5.64583 22.599 4.83854 21.2969 4.42188C22.2344 6.14062 23.0156 8.11979 23.6406 10.3594H28.5625ZM5.20312 5.28125C8.48438 2 12.4167 0.359375 17 0.359375C21.5833 0.359375 25.4896 2 28.7188 5.28125C32 8.51042 33.6406 12.4167 33.6406 17C33.6406 21.5833 32 25.5156 28.7188 28.7969C25.4896 32.026 21.5833 33.6406 17 33.6406C12.4167 33.6406 8.48438 32.026 5.20312 28.7969C1.97396 25.5156 0.359375 21.5833 0.359375 17C0.359375 12.4167 1.97396 8.51042 5.20312 5.28125Z" fill="white"/>
</svg>
