<svg width="414" height="440" viewBox="0 0 414 440" fill="none" xmlns="http://www.w3.org/2000/svg">
	<path d="M0.75 396.75V270.33H19.57V393.25H50.76C52.61 393.25 54.88 393.16 57.59 392.98C60.3 392.8 63.06 392.43 65.9 391.87C68.73 391.32 71.41 390.61 73.93 389.75C76.45 388.89 78.51 387.84 80.11 386.61V396.76H0.75V396.75Z" fill="white"/>
	<path d="M180.51 270.33V350.8C180.51 358.18 179.4 364.83 177.19 370.73C174.97 376.63 171.86 381.61 167.87 385.68C163.87 389.74 159.19 392.85 153.85 395C148.49 397.15 142.68 398.23 136.4 398.23C130 398.23 123.91 397.25 118.13 395.28C112.34 393.31 107.24 390.45 102.81 386.7C98.3802 382.94 94.8702 378.39 92.2902 373.04C89.7002 367.69 88.4102 361.63 88.4102 354.86V270.33H107.24V361.14C107.24 365.94 107.92 370.37 109.27 374.43C110.62 378.49 112.65 382.03 115.36 385.04C118.07 388.06 121.36 390.4 125.24 392.05C129.11 393.71 133.52 394.54 138.44 394.54C143.61 394.54 148.53 393.5 153.21 391.4C157.88 389.31 161.94 386.39 165.39 382.63C168.83 378.88 171.57 374.42 173.6 369.25C175.63 364.09 176.64 358.36 176.64 352.09V299.67C176.64 291.67 175.9 285.25 174.42 280.38C172.95 275.52 171.28 272.17 169.44 270.32H180.51V270.33Z" fill="white"/>
	<path d="M259.141 398.23C250.901 398.23 243.001 396.88 235.421 394.17C227.851 391.46 221.151 387.4 215.311 381.99C209.461 376.58 204.821 369.84 201.381 361.78C197.931 353.72 196.211 344.34 196.211 333.64C196.211 323.06 197.871 313.71 201.191 305.59C204.511 297.47 209.001 290.7 214.661 285.29C220.321 279.88 226.911 275.78 234.411 273.02C241.911 270.25 249.791 268.87 258.031 268.87C264.301 268.87 269.871 269.3 274.731 270.16C279.591 271.02 283.621 272 286.821 273.11C290.631 274.34 293.961 275.76 296.791 277.36L292.921 291.57C291.321 288 288.981 284.74 285.901 281.79C283.321 279.33 279.811 277.11 275.381 275.15C270.961 273.18 265.231 272.19 258.221 272.19C252.071 272.19 246.381 273.76 241.151 276.9C235.921 280.04 231.431 284.37 227.681 289.91C223.921 295.45 221.011 301.94 218.911 309.38C216.821 316.83 215.771 324.91 215.771 333.65C215.771 342.26 216.821 350.32 218.911 357.83C221.011 365.34 223.961 371.83 227.781 377.3C231.591 382.78 236.111 387.08 241.341 390.22C246.571 393.36 252.331 394.93 258.601 394.93C266.961 394.93 274.441 392.75 281.021 388.38C287.611 384.02 292.871 378.32 296.811 371.31L299.391 386.26C296.191 388.47 292.561 390.44 288.501 392.16C285.061 393.76 280.871 395.18 275.951 396.4C271.011 397.61 265.411 398.23 259.141 398.23Z" fill="white"/>
	<path d="M327.8 357.44L320.78 377.74C318.57 383.77 317.09 390.11 316.35 396.75H309.52L353.81 268.48H369.13L413.24 396.75H393.5L380.58 359.1C379.22 358.85 377.69 358.61 375.96 358.36C374.23 358.11 372.51 357.93 370.79 357.8C369.06 357.68 367.44 357.59 365.9 357.52C364.36 357.46 363.1 357.43 362.12 357.43H327.8V357.44ZM378.74 353.93L354 281.77L329.09 353.93H378.74Z" fill="white"/>
	<path fill-rule="evenodd" clip-rule="evenodd" d="M195 24.8399V3.06992L190.38 0.159912L185.76 3.06992V24.8399L190.38 21.9299L195 24.8399Z" fill="#B0B0B0"/>
	<path fill-rule="evenodd" clip-rule="evenodd" d="M158.05 97.34L185.76 79.87V227.94H195V139.43L204.23 133.61V96.57L213.47 102.4V127.78L222.7 121.96L231.94 127.78V92.27L222.7 86.45V68.37L213.47 62.55V44.08L190.38 29.52L167.29 44.08V54.96L190.38 40.4V47.99L158.05 68.37V79.26L190.38 58.87V66.07L148.82 92.27V127.78L158.05 121.96V97.34Z" fill="#B59752"/>
	<path fill-rule="evenodd" clip-rule="evenodd" d="M222.7 132.88L204.23 144.53V227.95H213.47V149.6L222.71 143.78V227.95H278.12V218.71H268.89V162L222.7 132.88ZM250.41 209.47H241.17V166.3L250.41 172.12V209.47Z" fill="#B59752"/>
	<path fill-rule="evenodd" clip-rule="evenodd" d="M139.58 166.3L130.35 172.12V209.47H139.58V166.3Z" fill="#B59752"/>
	<path d="M296.59 237.18H84.1699V246.42H296.59V237.18Z" fill="#B0B0B0"/>
	<path fill-rule="evenodd" clip-rule="evenodd" d="M176.529 133.61V96.5698L167.289 102.4V127.78L176.529 133.61Z" fill="#B0B0B0"/>
	<path fill-rule="evenodd" clip-rule="evenodd" d="M158.051 143.76L167.291 149.58V227.93H176.531V144.51L158.061 132.86L111.871 162V218.71H102.631V227.95H158.041V143.76H158.051ZM148.821 218.7H121.111V167.05L148.821 149.58V218.7Z" fill="#B59752"/>
	<path d="M13.8108 439.57L9.75078 433.51H6.47078V439.57H2.30078V420.62H10.9608C13.2208 420.62 14.9708 421.17 16.2308 422.27C17.4908 423.37 18.1108 424.9 18.1108 426.87V426.92C18.1108 428.45 17.7308 429.71 16.9808 430.67C16.2308 431.64 15.2508 432.34 14.0408 432.79L18.6708 439.56H13.8108V439.57ZM13.8908 427.09C13.8908 426.19 13.6008 425.51 13.0208 425.06C12.4408 424.61 11.6408 424.38 10.6108 424.38H6.46078V429.82H10.6908C11.7208 429.82 12.5008 429.58 13.0608 429.09C13.6108 428.6 13.8808 427.95 13.8808 427.14V427.09H13.8908Z" fill="#B0B0B0"/>
	<path d="M43.6504 439.57V420.62H57.9204V424.33H47.7604V428.17H56.7004V431.88H47.7604V435.86H58.0504V439.57H43.6504Z" fill="#B0B0B0"/>
	<path d="M97.6595 439.57L95.9294 435.32H87.9195L86.1895 439.57H81.9395L90.0594 420.48H93.8994L102.019 439.57H97.6595ZM91.9195 425.49L89.3994 431.64H94.4395L91.9195 425.49Z" fill="#B0B0B0"/>
	<path d="M126.721 439.57V420.62H130.881V435.81H140.331V439.57H126.721Z" fill="#B0B0B0"/>
	<path d="M195.131 439.57V420.62H209.401V424.33H199.251V428.17H208.181V431.88H199.251V435.86H209.531V439.57H195.131Z" fill="#B0B0B0"/>
	<path d="M248.229 436.47C247.889 437.2 247.409 437.82 246.809 438.31C246.199 438.81 245.469 439.19 244.629 439.44C243.779 439.7 242.849 439.84 241.819 439.84C240.369 439.84 238.959 439.59 237.569 439.1C236.179 438.61 234.919 437.84 233.779 436.81L236.239 433.86C237.109 434.56 237.999 435.12 238.909 435.54C239.819 435.96 240.819 436.16 241.899 436.16C242.769 436.16 243.439 436 243.919 435.68C244.399 435.36 244.639 434.93 244.639 434.37V434.31C244.639 434.04 244.589 433.8 244.489 433.59C244.389 433.38 244.209 433.19 243.919 433.01C243.639 432.83 243.249 432.65 242.759 432.47C242.259 432.29 241.609 432.1 240.819 431.9C239.859 431.66 238.989 431.4 238.209 431.11C237.429 430.82 236.769 430.47 236.229 430.04C235.679 429.61 235.259 429.09 234.969 428.45C234.669 427.82 234.519 427.03 234.519 426.09V426.04C234.519 425.17 234.679 424.39 234.999 423.7C235.319 423.01 235.779 422.41 236.359 421.9C236.939 421.39 237.639 421 238.449 420.74C239.259 420.47 240.149 420.33 241.119 420.33C242.509 420.33 243.789 420.54 244.949 420.95C246.109 421.36 247.179 421.96 248.159 422.74L245.989 425.88C245.139 425.3 244.309 424.85 243.499 424.51C242.689 424.18 241.869 424.01 241.059 424.01C240.249 424.01 239.639 424.17 239.229 424.48C238.819 424.8 238.619 425.19 238.619 425.66V425.71C238.619 426.02 238.679 426.28 238.789 426.51C238.909 426.73 239.119 426.94 239.429 427.12C239.739 427.3 240.159 427.47 240.689 427.64C241.219 427.8 241.899 427.99 242.709 428.2C243.669 428.46 244.519 428.74 245.279 429.05C246.029 429.37 246.659 429.74 247.179 430.19C247.689 430.63 248.079 431.15 248.339 431.75C248.599 432.34 248.739 433.06 248.739 433.89V433.95C248.739 434.9 248.559 435.74 248.229 436.47Z" fill="#B0B0B0"/>
	<path d="M282.719 424.46V439.57H278.549V424.46H272.779V420.62H288.479V424.46H282.719Z" fill="#B0B0B0"/>
	<path d="M327.55 439.57L325.82 435.32H317.81L316.08 439.57H311.83L319.95 420.48H323.79L331.91 439.57H327.55ZM321.81 425.49L319.29 431.64H324.33L321.81 425.49Z" fill="#B0B0B0"/>
	<path d="M365.18 424.46V439.57H361.01V424.46H355.25V420.62H370.94V424.46H365.18Z" fill="#B0B0B0"/>
	<path d="M395.91 439.57V420.62H410.18V424.33H400.03V428.17H408.96V431.88H400.03V435.86H410.32V439.57H395.91Z" fill="#B0B0B0"/>
	</svg>
	