<?xml version="1.0" encoding="utf-8"?>
<!-- Generator: Adobe Illustrator 25.3.1, SVG Export Plug-In . SVG Version: 6.00 Build 0)  -->
<svg version="1.1" id="Layer_1" xmlns="http://www.w3.org/2000/svg" xmlns:xlink="http://www.w3.org/1999/xlink" x="0px" y="0px"
	 viewBox="0 0 800 800" style="enable-background:new 0 0 800 800;" xml:space="preserve">
<style type="text/css">
	.st0{fill-rule:evenodd;clip-rule:evenodd;fill:#4E4A4A;}
	.st1{fill-rule:evenodd;clip-rule:evenodd;fill:#B59752;}
	.st2{fill:#4E4A4A;}
	.st3{fill:#FFFFFF;}
	.st4{fill-rule:evenodd;clip-rule:evenodd;}
	.st5{clip-path:url(#SVGID_2_);fill-rule:evenodd;clip-rule:evenodd;fill:#0B0B0B;}
	.st6{fill-rule:evenodd;clip-rule:evenodd;fill:#FFFFFF;}
</style>
<g>
	<path d="M193.75,576.75V450.33h18.82v122.92h31.19c1.85,0,4.12-0.09,6.83-0.27c2.71-0.18,5.47-0.55,8.31-1.11
		c2.83-0.55,5.51-1.26,8.03-2.12c2.52-0.86,4.58-1.91,6.18-3.14v10.15H193.75z"/>
	<path d="M373.51,450.33v80.47c0,7.38-1.11,14.03-3.32,19.93c-2.22,5.9-5.33,10.88-9.32,14.95c-4,4.06-8.68,7.17-14.02,9.32
		c-5.36,2.15-11.17,3.23-17.45,3.23c-6.4,0-12.49-0.98-18.27-2.95c-5.79-1.97-10.89-4.83-15.32-8.58
		c-4.43-3.76-7.94-8.31-10.52-13.66c-2.59-5.35-3.88-11.41-3.88-18.18v-84.53h18.83v90.81c0,4.8,0.68,9.23,2.03,13.29
		c1.35,4.06,3.38,7.6,6.09,10.61c2.71,3.02,6,5.36,9.88,7.01c3.87,1.66,8.28,2.49,13.2,2.49c5.17,0,10.09-1.04,14.77-3.14
		c4.67-2.09,8.73-5.01,12.18-8.77c3.44-3.75,6.18-8.21,8.21-13.38c2.03-5.16,3.04-10.89,3.04-17.16v-52.42
		c0-8-0.74-14.42-2.22-19.29c-1.47-4.86-3.14-8.21-4.98-10.06H373.51z"/>
	<path d="M452.14,578.23c-8.24,0-16.14-1.35-23.72-4.06c-7.57-2.71-14.27-6.77-20.11-12.18c-5.85-5.41-10.49-12.15-13.93-20.21
		c-3.45-8.06-5.17-17.44-5.17-28.14c0-10.58,1.66-19.93,4.98-28.05c3.32-8.12,7.81-14.89,13.47-20.3
		c5.66-5.41,12.25-9.51,19.75-12.27c7.5-2.77,15.38-4.15,23.62-4.15c6.27,0,11.84,0.43,16.7,1.29c4.86,0.86,8.89,1.84,12.09,2.95
		c3.81,1.23,7.14,2.65,9.97,4.25l-3.87,14.21c-1.6-3.57-3.94-6.83-7.02-9.78c-2.58-2.46-6.09-4.68-10.52-6.64
		c-4.42-1.97-10.15-2.96-17.16-2.96c-6.15,0-11.84,1.57-17.07,4.71c-5.23,3.14-9.72,7.47-13.47,13.01
		c-3.76,5.54-6.67,12.03-8.77,19.47c-2.09,7.45-3.14,15.53-3.14,24.27c0,8.61,1.05,16.67,3.14,24.18c2.1,7.51,5.05,14,8.87,19.47
		c3.81,5.48,8.33,9.78,13.56,12.92c5.23,3.14,10.99,4.71,17.26,4.71c8.36,0,15.84-2.18,22.42-6.55
		c6.59-4.36,11.85-10.06,15.79-17.07l2.58,14.95c-3.2,2.21-6.83,4.18-10.89,5.9c-3.44,1.6-7.63,3.02-12.55,4.24
		C464.01,577.61,458.41,578.23,452.14,578.23"/>
	<path d="M520.8,537.44l-7.02,20.3c-2.21,6.03-3.69,12.37-4.43,19.01h-6.83l44.29-128.27h15.32l44.11,128.27H586.5l-12.92-37.65
		c-1.36-0.25-2.89-0.49-4.62-0.74c-1.73-0.25-3.45-0.43-5.17-0.56c-1.73-0.12-3.35-0.21-4.89-0.28c-1.54-0.06-2.8-0.09-3.78-0.09
		H520.8z M571.74,533.93L547,461.77l-24.91,72.16H571.74z"/>
	<polygon class="st0" points="388,204.84 388,183.07 383.38,180.16 378.76,183.07 378.76,204.84 383.38,201.93 	"/>
	<polygon class="st1" points="351.05,277.34 378.76,259.87 378.76,407.94 388,407.94 388,319.43 397.23,313.61 397.23,276.57 
		406.47,282.4 406.47,307.78 415.7,301.96 424.94,307.78 424.94,272.27 415.7,266.45 415.7,248.37 406.47,242.55 406.47,224.08 
		383.38,209.52 360.29,224.08 360.29,234.96 383.38,220.4 383.38,227.99 351.05,248.37 351.05,259.26 383.38,238.87 383.38,246.07 
		341.82,272.27 341.82,307.78 351.05,301.96 	"/>
	<path class="st1" d="M415.7,312.88l-18.47,11.65v83.42h9.24v-78.35l9.24-5.82v84.17h55.41v-9.24h-9.23V342L415.7,312.88z
		 M443.41,389.47h-9.24V346.3l9.24,5.82V389.47z"/>
	<polygon class="st1" points="332.58,346.3 323.35,352.12 323.35,389.47 332.58,389.47 	"/>
	<rect x="277.17" y="417.18" class="st0" width="212.42" height="9.24"/>
	<polygon class="st0" points="369.53,313.61 369.53,276.57 360.29,282.4 360.29,307.78 	"/>
	<path class="st1" d="M351.05,323.76l9.24,5.82v78.35h9.24v-83.42l-18.47-11.65L304.87,342v56.71h-9.24v9.24h55.41V323.76z
		 M341.82,398.7h-27.71v-51.65l27.71-17.47V398.7z"/>
	<path class="st2" d="M206.81,619.57l-4.06-6.06h-3.28v6.06h-4.17v-18.95h8.66c2.26,0,4.01,0.55,5.27,1.65
		c1.26,1.1,1.88,2.63,1.88,4.6v0.05c0,1.53-0.38,2.79-1.13,3.75c-0.75,0.97-1.73,1.67-2.94,2.12l4.63,6.77H206.81z M206.89,607.09
		c0-0.9-0.29-1.58-0.87-2.03c-0.58-0.45-1.38-0.68-2.41-0.68h-4.15v5.44h4.23c1.03,0,1.81-0.24,2.37-0.73
		c0.55-0.49,0.82-1.14,0.82-1.95V607.09z"/>
	<polygon class="st2" points="236.65,619.57 236.65,600.62 250.92,600.62 250.92,604.33 240.76,604.33 240.76,608.17 249.7,608.17 
		249.7,611.88 240.76,611.88 240.76,615.86 251.05,615.86 251.05,619.57 	"/>
	<path class="st2" d="M290.66,619.57l-1.73-4.25h-8.01l-1.73,4.25h-4.25l8.12-19.09h3.84l8.12,19.09H290.66z M284.92,605.49
		l-2.52,6.15h5.04L284.92,605.49z"/>
	<polygon class="st2" points="319.72,619.57 319.72,600.62 323.88,600.62 323.88,615.81 333.33,615.81 333.33,619.57 	"/>
	<polygon class="st2" points="388.13,619.57 388.13,600.62 402.4,600.62 402.4,604.33 392.25,604.33 392.25,608.17 401.18,608.17 
		401.18,611.88 392.25,611.88 392.25,615.86 402.53,615.86 402.53,619.57 	"/>
	<path class="st2" d="M441.23,616.47c-0.34,0.73-0.82,1.35-1.42,1.84c-0.61,0.5-1.34,0.88-2.18,1.13c-0.85,0.26-1.78,0.4-2.81,0.4
		c-1.45,0-2.86-0.25-4.25-0.74c-1.39-0.49-2.65-1.26-3.79-2.29l2.46-2.95c0.87,0.7,1.76,1.26,2.67,1.68
		c0.91,0.42,1.91,0.62,2.99,0.62c0.87,0,1.54-0.16,2.02-0.48c0.48-0.32,0.72-0.75,0.72-1.31v-0.06c0-0.27-0.05-0.51-0.15-0.72
		c-0.1-0.21-0.28-0.4-0.57-0.58c-0.28-0.18-0.67-0.36-1.16-0.54c-0.5-0.18-1.15-0.37-1.94-0.57c-0.96-0.24-1.83-0.5-2.61-0.79
		c-0.78-0.29-1.44-0.64-1.98-1.07c-0.55-0.43-0.97-0.95-1.26-1.59c-0.3-0.63-0.45-1.42-0.45-2.36v-0.05c0-0.87,0.16-1.65,0.48-2.34
		c0.32-0.69,0.78-1.29,1.36-1.8c0.58-0.51,1.28-0.9,2.09-1.16c0.81-0.27,1.7-0.41,2.67-0.41c1.39,0,2.67,0.21,3.83,0.62
		c1.16,0.41,2.23,1.01,3.21,1.79l-2.17,3.14c-0.85-0.58-1.68-1.03-2.49-1.37c-0.81-0.33-1.63-0.5-2.44-0.5
		c-0.81,0-1.42,0.16-1.83,0.47c-0.41,0.32-0.61,0.71-0.61,1.18v0.05c0,0.31,0.06,0.57,0.17,0.8c0.12,0.22,0.33,0.43,0.64,0.61
		c0.31,0.18,0.73,0.35,1.26,0.52c0.53,0.16,1.21,0.35,2.02,0.56c0.96,0.26,1.81,0.54,2.57,0.85c0.75,0.32,1.38,0.69,1.9,1.14
		c0.51,0.44,0.9,0.96,1.16,1.56c0.26,0.59,0.4,1.31,0.4,2.14v0.06C441.74,614.9,441.56,615.74,441.23,616.47"/>
	<polygon class="st2" points="475.72,604.46 475.72,619.57 471.55,619.57 471.55,604.46 465.78,604.46 465.78,600.62 481.48,600.62 
		481.48,604.46 	"/>
	<path class="st2" d="M520.55,619.57l-1.73-4.25h-8.01l-1.73,4.25h-4.25l8.12-19.09h3.84l8.12,19.09H520.55z M514.81,605.49
		l-2.52,6.15h5.04L514.81,605.49z"/>
	<polygon class="st2" points="558.18,604.46 558.18,619.57 554.01,619.57 554.01,604.46 548.25,604.46 548.25,600.62 563.94,600.62 
		563.94,604.46 	"/>
	<polygon class="st2" points="588.91,619.57 588.91,600.62 603.18,600.62 603.18,604.33 593.03,604.33 593.03,608.17 601.96,608.17 
		601.96,611.88 593.03,611.88 593.03,615.86 603.32,615.86 603.32,619.57 	"/>
</g>
</svg>
