<?xml version="1.0" encoding="utf-8"?>
<!-- Generator: Adobe Illustrator 25.3.1, SVG Export Plug-In . SVG Version: 6.00 Build 0)  -->
<svg version="1.1" id="Layer_1" xmlns="http://www.w3.org/2000/svg" xmlns:xlink="http://www.w3.org/1999/xlink" x="0px" y="0px"
	 viewBox="0 0 800 800" style="enable-background:new 0 0 800 800;" xml:space="preserve">
<style type="text/css">
	.st0{fill-rule:evenodd;clip-rule:evenodd;fill:#4E4A4A;}
	.st1{fill-rule:evenodd;clip-rule:evenodd;fill:#B59752;}
	.st2{fill:#4E4A4A;}
	.st3{fill:#FFFFFF;}
	.st4{fill-rule:evenodd;clip-rule:evenodd;}
	.st5{clip-path:url(#SVGID_2_);fill-rule:evenodd;clip-rule:evenodd;fill:#0B0B0B;}
	.st6{fill-rule:evenodd;clip-rule:evenodd;fill:#FFFFFF;}
</style>
<g>
	<path class="st3" d="M291.78,439.11V327.5h16.62v108.51h27.53c1.63,0,3.64-0.08,6.03-0.25c2.39-0.16,4.84-0.49,7.33-0.98
		c2.5-0.49,4.86-1.11,7.09-1.87c2.23-0.76,4.05-1.68,5.46-2.77v8.96H291.78z"/>
	<path class="st3" d="M450.47,327.5v71.04c0,6.52-0.98,12.38-2.93,17.6c-1.95,5.21-4.7,9.61-8.23,13.2
		c-3.53,3.58-7.66,6.33-12.38,8.23c-4.72,1.9-9.86,2.85-15.39,2.85c-5.65,0-11.02-0.87-16.13-2.61c-5.1-1.74-9.61-4.26-13.52-7.58
		c-3.91-3.31-7-7.33-9.29-12.06c-2.28-4.73-3.42-10.07-3.42-16.05V327.5h16.62v80.16c0,4.24,0.6,8.15,1.79,11.73
		c1.19,3.59,2.98,6.71,5.38,9.37c2.39,2.66,5.3,4.73,8.72,6.19c3.42,1.47,7.3,2.2,11.65,2.2c4.57,0,8.91-0.92,13.03-2.77
		c4.13-1.85,7.72-4.43,10.75-7.74c3.04-3.31,5.46-7.25,7.25-11.81c1.79-4.56,2.69-9.61,2.69-15.15v-46.27
		c0-7.06-0.65-12.73-1.95-17.02c-1.31-4.29-2.77-7.25-4.4-8.88H450.47z"/>
	<path class="st3" d="M519.88,440.41c-7.28,0-14.26-1.2-20.94-3.58c-6.68-2.39-12.6-5.97-17.76-10.75
		c-5.16-4.78-9.26-10.72-12.3-17.84c-3.04-7.11-4.56-15.4-4.56-24.85c0-9.34,1.46-17.6,4.4-24.76c2.93-7.17,6.89-13.14,11.89-17.92
		c4.99-4.78,10.81-8.39,17.43-10.83c6.62-2.44,13.58-3.67,20.85-3.67c5.54,0,10.45,0.38,14.74,1.14c4.29,0.76,7.85,1.63,10.67,2.61
		c3.36,1.09,6.3,2.34,8.8,3.75l-3.42,12.55c-1.41-3.15-3.48-6.03-6.19-8.64c-2.28-2.17-5.38-4.13-9.29-5.87
		c-3.91-1.73-8.96-2.61-15.15-2.61c-5.43,0-10.46,1.39-15.07,4.16c-4.62,2.77-8.58,6.6-11.89,11.48c-3.32,4.89-5.9,10.62-7.74,17.19
		s-2.77,13.71-2.77,21.42c0,7.6,0.92,14.72,2.77,21.34c1.85,6.63,4.46,12.36,7.82,17.19c3.37,4.83,7.36,8.63,11.98,11.41
		c4.61,2.77,9.69,4.15,15.23,4.15c7.39,0,13.99-1.93,19.8-5.78c5.81-3.86,10.45-8.88,13.93-15.07l2.28,13.2
		c-2.83,1.95-6.03,3.69-9.61,5.21c-3.04,1.41-6.74,2.66-11.08,3.75C530.36,439.87,525.42,440.41,519.88,440.41"/>
	<path class="st3" d="M580.49,404.41l-6.19,17.92c-1.95,5.33-3.26,10.92-3.91,16.78h-6.03l39.1-113.24h13.52l38.94,113.24h-17.43
		l-11.41-33.24c-1.2-0.22-2.55-0.43-4.08-0.65c-1.52-0.22-3.04-0.38-4.56-0.49c-1.52-0.11-2.96-0.19-4.32-0.25
		c-1.36-0.05-2.47-0.08-3.34-0.08H580.49z M625.46,401.31l-21.83-63.71l-21.99,63.71H625.46z"/>
	<polygon class="st0" points="211.08,340.35 211.08,327.15 208.28,325.39 205.48,327.15 205.48,340.35 208.28,338.58 	"/>
	<polygon class="st1" points="188.69,384.28 205.49,373.69 205.49,463.42 211.08,463.42 211.08,409.78 216.68,406.26 216.68,383.81 
		222.28,387.34 222.28,402.73 227.87,399.2 233.47,402.73 233.47,381.21 227.87,377.68 227.87,366.72 222.28,363.19 222.28,352 
		208.28,343.18 194.29,352 194.29,358.6 208.28,349.78 208.28,354.37 188.69,366.72 188.69,373.32 208.28,360.97 208.28,365.33 
		183.1,381.21 183.1,402.73 188.69,399.2 	"/>
	<path class="st1" d="M227.87,405.81l-11.19,7.06v50.55h5.59v-47.48l5.59-3.53v51.01h33.58v-5.6h-5.59v-34.37L227.87,405.81z
		 M244.66,452.22h-5.6v-26.16l5.6,3.53V452.22z"/>
	<polygon class="st1" points="177.5,426.06 171.9,429.59 171.9,452.23 177.5,452.23 	"/>
	<rect x="143.92" y="469.01" class="st0" width="128.73" height="5.6"/>
	<polygon class="st0" points="199.89,406.25 199.89,383.81 194.29,387.34 194.29,402.72 	"/>
	<path class="st1" d="M188.69,412.41l5.6,3.53v47.48h5.59v-50.55l-11.19-7.06l-27.99,17.64v34.37h-5.59v5.6h33.58V412.41z
		 M183.1,457.82h-16.79v-31.3l16.79-10.59V457.82z"/>
	<path class="st3" d="M300.96,472.69l-3.64-5.43h-2.93v5.43h-3.73v-16.97h7.76c2.02,0,3.59,0.49,4.71,1.48
		c1.12,0.98,1.69,2.36,1.69,4.12v0.05c0,1.38-0.33,2.49-1.01,3.36c-0.67,0.86-1.55,1.5-2.63,1.9l4.15,6.06H300.96z M301.03,461.51
		c0-0.81-0.26-1.42-0.77-1.82c-0.52-0.4-1.24-0.6-2.16-0.6h-3.71v4.87h3.78c0.92,0,1.63-0.22,2.12-0.66
		c0.49-0.44,0.74-1.02,0.74-1.75V461.51z"/>
	<polygon class="st3" points="327.68,472.69 327.68,455.71 340.46,455.71 340.46,459.04 331.37,459.04 331.37,462.48 339.37,462.48 
		339.37,465.8 331.37,465.8 331.37,469.37 340.58,469.37 340.58,472.69 	"/>
	<path class="st3" d="M376.06,472.69l-1.55-3.81h-7.18l-1.55,3.81h-3.81l7.28-17.1h3.44l7.27,17.1H376.06z M370.92,460.08l-2.26,5.5
		h4.51L370.92,460.08z"/>
	<polygon class="st3" points="402.08,472.69 402.08,455.71 405.81,455.71 405.81,469.32 414.28,469.32 414.28,472.69 	"/>
	<polygon class="st3" points="463.35,472.69 463.35,455.71 476.13,455.71 476.13,459.04 467.04,459.04 467.04,462.48 475.04,462.48 
		475.04,465.8 467.04,465.8 467.04,469.37 476.25,469.37 476.25,472.69 	"/>
	<path class="st3" d="M510.91,469.91c-0.31,0.65-0.73,1.21-1.28,1.65c-0.55,0.44-1.2,0.78-1.96,1.02c-0.76,0.23-1.6,0.35-2.52,0.35
		c-1.3,0-2.57-0.22-3.81-0.66c-1.24-0.45-2.38-1.13-3.4-2.05l2.21-2.64c0.78,0.63,1.57,1.13,2.39,1.5c0.82,0.37,1.71,0.56,2.68,0.56
		c0.77,0,1.38-0.14,1.81-0.43c0.43-0.28,0.64-0.67,0.64-1.18v-0.05c0-0.24-0.04-0.46-0.13-0.64c-0.09-0.19-0.26-0.36-0.51-0.52
		c-0.25-0.16-0.6-0.33-1.05-0.48c-0.44-0.16-1.02-0.33-1.73-0.51c-0.86-0.21-1.64-0.44-2.33-0.7c-0.7-0.26-1.29-0.58-1.78-0.96
		c-0.49-0.38-0.86-0.85-1.13-1.42c-0.27-0.57-0.4-1.27-0.4-2.11v-0.05c0-0.77,0.14-1.47,0.43-2.1c0.29-0.62,0.7-1.16,1.22-1.61
		c0.52-0.45,1.14-0.8,1.87-1.04c0.73-0.24,1.53-0.36,2.4-0.36c1.25,0,2.39,0.19,3.43,0.56c1.05,0.37,2,0.9,2.88,1.6l-1.94,2.81
		c-0.76-0.52-1.51-0.93-2.23-1.23c-0.73-0.3-1.46-0.45-2.18-0.45c-0.73,0-1.27,0.14-1.64,0.43c-0.36,0.28-0.55,0.63-0.55,1.05v0.05
		c0,0.27,0.05,0.51,0.16,0.72c0.11,0.2,0.3,0.38,0.57,0.54c0.27,0.16,0.65,0.32,1.13,0.46c0.48,0.14,1.08,0.32,1.81,0.51
		c0.86,0.23,1.62,0.48,2.3,0.77c0.67,0.28,1.24,0.62,1.7,1.02c0.46,0.4,0.81,0.86,1.05,1.4c0.23,0.53,0.35,1.17,0.35,1.92v0.05
		C511.37,468.51,511.21,469.26,510.91,469.91"/>
	<polygon class="st3" points="541.8,459.16 541.8,472.69 538.06,472.69 538.06,459.16 532.9,459.16 532.9,455.71 546.96,455.71 
		546.96,459.16 	"/>
	<path class="st3" d="M581.96,472.69l-1.55-3.81h-7.18l-1.55,3.81h-3.81l7.28-17.1h3.44l7.27,17.1H581.96z M576.81,460.08l-2.26,5.5
		h4.51L576.81,460.08z"/>
	<polygon class="st3" points="615.66,459.16 615.66,472.69 611.93,472.69 611.93,459.16 606.76,459.16 606.76,455.71 620.83,455.71 
		620.83,459.16 	"/>
	<polygon class="st3" points="643.18,472.69 643.18,455.71 655.96,455.71 655.96,459.04 646.87,459.04 646.87,462.48 654.87,462.48 
		654.87,465.8 646.87,465.8 646.87,469.37 656.08,469.37 656.08,472.69 	"/>
</g>
</svg>
