<?xml version="1.0" encoding="utf-8"?>
<!-- Generator: Adobe Illustrator 25.3.1, SVG Export Plug-In . SVG Version: 6.00 Build 0)  -->
<svg version="1.1" id="Layer_1" xmlns="http://www.w3.org/2000/svg" xmlns:xlink="http://www.w3.org/1999/xlink" x="0px" y="0px"
	 viewBox="0 0 800 800" style="enable-background:new 0 0 800 800;" xml:space="preserve">
<style type="text/css">
	.st0{fill-rule:evenodd;clip-rule:evenodd;fill:#4E4A4A;}
	.st1{fill-rule:evenodd;clip-rule:evenodd;fill:#B59752;}
	.st2{fill:#4E4A4A;}
	.st3{fill:#FFFFFF;}
	.st4{fill-rule:evenodd;clip-rule:evenodd;}
	.st5{clip-path:url(#SVGID_2_);fill-rule:evenodd;clip-rule:evenodd;fill:#0B0B0B;}
	.st6{fill-rule:evenodd;clip-rule:evenodd;fill:#FFFFFF;}
</style>
<g>
	<path d="M269.6,447.12V312.65h20.03v130.74h33.17c1.97,0,4.38-0.1,7.26-0.29c2.88-0.2,5.83-0.59,8.83-1.18
		c3.01-0.59,5.86-1.34,8.54-2.26c2.68-0.91,4.88-2.03,6.58-3.34v10.8H269.6z"/>
	<path d="M460.81,312.65v85.59c0,7.85-1.18,14.92-3.54,21.2c-2.35,6.28-5.66,11.59-9.91,15.9s-9.23,7.63-14.92,9.91
		c-5.69,2.29-11.87,3.44-18.55,3.44c-6.81,0-13.28-1.05-19.44-3.14c-6.15-2.09-11.58-5.14-16.29-9.13
		c-4.71-3.99-8.44-8.83-11.19-14.53c-2.75-5.7-4.12-12.14-4.12-19.34v-89.91h20.03v96.58c0,5.1,0.72,9.81,2.16,14.13
		c1.44,4.32,3.6,8.08,6.48,11.29c2.88,3.21,6.38,5.7,10.5,7.46c4.12,1.76,8.8,2.65,14.03,2.65c5.5,0,10.73-1.11,15.71-3.34
		c4.97-2.22,9.29-5.33,12.96-9.32c3.66-3.99,6.57-8.74,8.73-14.23c2.16-5.5,3.24-11.59,3.24-18.26v-55.75
		c0-8.51-0.79-15.34-2.35-20.51c-1.58-5.17-3.34-8.74-5.3-10.7H460.81z"/>
	<path d="M544.43,448.69c-8.77,0-17.18-1.44-25.22-4.32c-8.05-2.88-15.19-7.2-21.39-12.96c-6.22-5.76-11.16-12.92-14.82-21.5
		c-3.67-8.57-5.49-18.55-5.49-29.94c0-11.25,1.76-21.2,5.3-29.84c3.53-8.64,8.3-15.83,14.33-21.6c6.01-5.76,13.02-10.11,21-13.05
		c7.98-2.94,16.36-4.42,25.13-4.42c6.67,0,12.59,0.46,17.76,1.37c5.17,0.92,9.46,1.97,12.86,3.14c4.05,1.31,7.59,2.81,10.6,4.52
		l-4.12,15.11c-1.7-3.79-4.19-7.26-7.46-10.41c-2.75-2.62-6.48-4.97-11.19-7.07c-4.71-2.09-10.8-3.14-18.26-3.14
		c-6.54,0-12.6,1.67-18.16,5.01c-5.57,3.34-10.34,7.95-14.33,13.84c-4,5.89-7.11,12.79-9.33,20.71c-2.23,7.92-3.34,16.52-3.34,25.81
		c0,9.16,1.11,17.74,3.34,25.72c2.22,7.99,5.37,14.89,9.42,20.71c4.05,5.83,8.86,10.4,14.43,13.74c5.56,3.34,11.68,5,18.35,5
		c8.9,0,16.85-2.32,23.85-6.97c7-4.64,12.6-10.7,16.79-18.16l2.75,15.9c-3.4,2.35-7.26,4.45-11.58,6.28
		c-3.67,1.7-8.12,3.21-13.35,4.51C557.06,448.03,551.11,448.69,544.43,448.69"/>
	<path d="M617.46,405.31L610,426.9c-2.35,6.42-3.93,13.15-4.71,20.22h-7.26l47.11-136.43h16.29l46.92,136.43h-21l-13.74-40.05
		c-1.44-0.26-3.08-0.52-4.91-0.79c-1.84-0.26-3.66-0.46-5.49-0.59c-1.84-0.13-3.57-0.23-5.2-0.3c-1.64-0.07-2.98-0.1-4.03-0.1
		H617.46z M671.65,401.58l-26.31-76.76l-26.5,76.76H671.65z"/>
	<polygon class="st0" points="172.38,328.12 172.38,312.23 169,310.1 165.63,312.23 165.63,328.12 169,326 	"/>
	<polygon class="st1" points="145.4,381.05 165.63,368.3 165.63,476.41 172.38,476.41 172.38,411.78 179.12,407.53 179.12,380.5 
		185.86,384.75 185.86,403.28 192.61,399.03 199.35,403.28 199.35,377.36 192.61,373.11 192.61,359.9 185.86,355.65 185.86,342.16 
		169,331.54 152.15,342.16 152.15,350.12 169,339.49 169,345.02 145.4,359.9 145.4,367.85 169,352.97 169,358.22 138.66,377.36 
		138.66,403.28 145.4,399.03 	"/>
	<path class="st1" d="M192.61,407l-13.49,8.51v60.9h6.74V419.2l6.74-4.25v61.46h40.46v-6.74h-6.74v-41.41L192.61,407z
		 M212.84,462.92h-6.74V431.4l6.74,4.25V462.92z"/>
	<polygon class="st1" points="131.92,431.4 125.17,435.65 125.17,462.92 131.92,462.92 	"/>
	<rect x="91.46" y="483.15" class="st0" width="155.1" height="6.74"/>
	<polygon class="st0" points="158.89,407.54 158.89,380.5 152.15,384.75 152.15,403.28 	"/>
	<path class="st1" d="M145.4,414.95l6.74,4.25v57.21h6.74v-60.91L145.4,407l-33.72,21.26v41.41h-6.74v6.74h40.46V414.95z
		 M138.66,469.67h-20.23v-37.71l20.23-12.76V469.67z"/>
	<path class="st2" d="M280.67,487.58l-4.38-6.54h-3.53v6.54h-4.5v-20.45h9.35c2.43,0,4.33,0.59,5.68,1.79
		c1.35,1.19,2.03,2.84,2.03,4.96v0.06c0,1.66-0.4,3-1.21,4.05c-0.81,1.04-1.87,1.81-3.17,2.29l5,7.3H280.67z M280.76,474.11
		c0-0.98-0.31-1.71-0.93-2.19c-0.62-0.48-1.5-0.73-2.6-0.73h-4.47v5.87h4.55c1.11,0,1.97-0.26,2.56-0.79
		c0.59-0.53,0.89-1.23,0.89-2.1V474.11z"/>
	<polygon class="st2" points="312.87,487.58 312.87,467.13 328.26,467.13 328.26,471.13 317.31,471.13 317.31,475.28 326.95,475.28 
		326.95,479.28 317.31,479.28 317.31,483.58 328.41,483.58 328.41,487.58 	"/>
	<path class="st2" d="M371.15,487.58l-1.87-4.59h-8.65l-1.87,4.59h-4.59l8.77-20.6h4.15l8.76,20.6H371.15z M364.96,472.39
		l-2.72,6.63h5.43L364.96,472.39z"/>
	<polygon class="st2" points="402.5,487.58 402.5,467.13 407,467.13 407,483.52 417.2,483.52 417.2,487.58 	"/>
	<polygon class="st2" points="476.33,487.58 476.33,467.13 491.73,467.13 491.73,471.13 480.77,471.13 480.77,475.28 490.42,475.28 
		490.42,479.28 480.77,479.28 480.77,483.58 491.88,483.58 491.88,487.58 	"/>
	<path class="st2" d="M533.63,484.23c-0.37,0.79-0.88,1.45-1.54,1.99c-0.66,0.54-1.45,0.95-2.36,1.23
		c-0.91,0.28-1.93,0.43-3.03,0.43c-1.56,0-3.09-0.27-4.59-0.8c-1.5-0.53-2.86-1.36-4.09-2.47l2.66-3.19
		c0.94,0.76,1.9,1.36,2.88,1.81c0.98,0.45,2.06,0.67,3.22,0.67c0.94,0,1.66-0.17,2.18-0.51c0.51-0.34,0.77-0.81,0.77-1.42v-0.06
		c0-0.29-0.06-0.55-0.16-0.77c-0.11-0.22-0.32-0.43-0.61-0.63c-0.3-0.2-0.72-0.39-1.26-0.59c-0.54-0.2-1.24-0.4-2.1-0.61
		c-1.03-0.25-1.97-0.53-2.81-0.85c-0.84-0.31-1.55-0.69-2.14-1.15c-0.58-0.46-1.04-1.03-1.36-1.71c-0.32-0.68-0.48-1.53-0.48-2.54
		V473c0-0.93,0.17-1.78,0.52-2.53c0.35-0.75,0.84-1.4,1.47-1.94c0.63-0.54,1.38-0.96,2.25-1.25c0.87-0.29,1.84-0.44,2.89-0.44
		c1.5,0,2.88,0.22,4.13,0.67c1.26,0.45,2.41,1.09,3.46,1.93l-2.33,3.39c-0.92-0.62-1.82-1.12-2.69-1.48
		c-0.88-0.36-1.76-0.54-2.63-0.54c-0.88,0-1.54,0.17-1.98,0.51c-0.44,0.34-0.66,0.76-0.66,1.27v0.06c0,0.33,0.07,0.62,0.19,0.86
		c0.13,0.25,0.36,0.46,0.69,0.66c0.33,0.2,0.79,0.38,1.36,0.56c0.58,0.18,1.3,0.38,2.18,0.61c1.03,0.27,1.95,0.58,2.77,0.92
		c0.81,0.34,1.49,0.75,2.05,1.22c0.56,0.48,0.98,1.04,1.26,1.68c0.28,0.64,0.43,1.41,0.43,2.31v0.06
		C534.18,482.54,534,483.45,533.63,484.23"/>
	<polygon class="st2" points="570.84,471.28 570.84,487.58 566.35,487.58 566.35,471.28 560.12,471.28 560.12,467.13 577.07,467.13 
		577.07,471.28 	"/>
	<path class="st2" d="M619.23,487.58l-1.87-4.59h-8.65l-1.87,4.59h-4.58l8.77-20.6h4.15l8.77,20.6H619.23z M613.03,472.39
		l-2.72,6.63h5.44L613.03,472.39z"/>
	<polygon class="st2" points="659.84,471.28 659.84,487.58 655.34,487.58 655.34,471.28 649.12,471.28 649.12,467.13 666.06,467.13 
		666.06,471.28 	"/>
	<polygon class="st2" points="693,487.58 693,467.13 708.39,467.13 708.39,471.13 697.44,471.13 697.44,475.28 707.08,475.28 
		707.08,479.28 697.44,479.28 697.44,483.58 708.54,483.58 708.54,487.58 	"/>
</g>
</svg>
