<?xml version="1.0" encoding="utf-8"?>
<!-- Generator: Adobe Illustrator 25.3.1, SVG Export Plug-In . SVG Version: 6.00 Build 0)  -->
<svg version="1.1" id="Layer_1" xmlns="http://www.w3.org/2000/svg" xmlns:xlink="http://www.w3.org/1999/xlink" x="0px" y="0px"
	 viewBox="0 0 800 800" style="enable-background:new 0 0 800 800;" xml:space="preserve">
<style type="text/css">
	.st0{fill-rule:evenodd;clip-rule:evenodd;fill:#4E4A4A;}
	.st1{fill-rule:evenodd;clip-rule:evenodd;fill:#B59752;}
	.st2{fill:#4E4A4A;}
	.st3{fill:#FFFFFF;}
	.st4{fill-rule:evenodd;clip-rule:evenodd;}
	.st5{clip-path:url(#SVGID_2_);fill-rule:evenodd;clip-rule:evenodd;fill:#0B0B0B;}
	.st6{fill-rule:evenodd;clip-rule:evenodd;fill:#FFFFFF;}
</style>
<g>
	<path d="M181.21,447.84V313.37h20.02v130.74h33.17c1.97,0,4.38-0.1,7.26-0.29c2.88-0.2,5.83-0.59,8.83-1.18
		c3.01-0.59,5.86-1.34,8.54-2.26c2.68-0.91,4.87-2.03,6.58-3.34v10.8H181.21z"/>
	<path d="M372.41,313.37v85.59c0,7.85-1.18,14.92-3.53,21.2c-2.35,6.28-5.66,11.59-9.91,15.9c-4.25,4.32-9.23,7.63-14.92,9.91
		c-5.69,2.29-11.87,3.44-18.55,3.44c-6.81,0-13.28-1.05-19.44-3.14c-6.15-2.09-11.58-5.14-16.29-9.13
		c-4.71-3.99-8.44-8.83-11.19-14.53c-2.75-5.7-4.12-12.14-4.12-19.34v-89.91h20.03v96.58c0,5.1,0.72,9.81,2.16,14.13
		c1.44,4.32,3.6,8.08,6.48,11.29c2.87,3.21,6.38,5.7,10.5,7.46c4.12,1.76,8.8,2.65,14.04,2.65c5.5,0,10.73-1.11,15.71-3.34
		c4.97-2.22,9.29-5.33,12.96-9.32c3.66-3.99,6.58-8.74,8.74-14.23c2.16-5.5,3.24-11.59,3.24-18.26v-55.75
		c0-8.51-0.78-15.34-2.35-20.51c-1.58-5.17-3.34-8.73-5.3-10.7H372.41z"/>
	<path d="M456.03,449.41c-8.77,0-17.18-1.44-25.23-4.32c-8.05-2.88-15.18-7.2-21.39-12.96c-6.22-5.76-11.16-12.92-14.82-21.5
		c-3.67-8.57-5.49-18.55-5.49-29.94c0-11.25,1.76-21.2,5.3-29.84c3.53-8.64,8.3-15.83,14.33-21.6c6.01-5.76,13.02-10.11,21-13.05
		c7.98-2.94,16.36-4.42,25.13-4.42c6.67,0,12.59,0.46,17.76,1.37c5.17,0.92,9.46,1.96,12.86,3.14c4.05,1.31,7.59,2.81,10.6,4.52
		l-4.12,15.11c-1.7-3.79-4.19-7.26-7.46-10.41c-2.75-2.62-6.48-4.97-11.19-7.07c-4.71-2.09-10.8-3.14-18.26-3.14
		c-6.54,0-12.6,1.67-18.16,5c-5.57,3.34-10.34,7.95-14.33,13.84c-4,5.89-7.1,12.79-9.33,20.71c-2.23,7.92-3.34,16.52-3.34,25.81
		c0,9.16,1.11,17.74,3.34,25.72c2.22,7.99,5.36,14.89,9.42,20.71c4.05,5.83,8.87,10.4,14.43,13.74c5.56,3.34,11.68,5,18.36,5
		c8.9,0,16.85-2.32,23.85-6.97c7-4.64,12.6-10.7,16.79-18.16l2.75,15.9c-3.4,2.35-7.26,4.45-11.58,6.28
		c-3.67,1.7-8.12,3.21-13.35,4.52C468.66,448.75,462.71,449.41,456.03,449.41"/>
	<path d="M529.06,406.03l-7.46,21.59c-2.35,6.42-3.93,13.15-4.71,20.22h-7.26l47.11-136.43h16.29l46.92,136.43h-21l-13.74-40.05
		c-1.44-0.26-3.08-0.52-4.91-0.79c-1.84-0.26-3.66-0.46-5.49-0.59c-1.84-0.13-3.57-0.23-5.2-0.3c-1.64-0.07-2.98-0.1-4.03-0.1
		H529.06z M583.24,402.3l-26.31-76.76l-26.5,76.76H583.24z"/>
	<path class="st2" d="M192.27,488.3l-4.38-6.55h-3.53v6.55h-4.5v-20.45h9.35c2.43,0,4.33,0.59,5.68,1.78
		c1.35,1.19,2.03,2.84,2.03,4.97v0.06c0,1.66-0.4,3.01-1.21,4.05c-0.81,1.04-1.87,1.81-3.17,2.29l5,7.31H192.27z M192.36,474.83
		c0-0.98-0.31-1.71-0.93-2.19c-0.62-0.49-1.49-0.73-2.6-0.73h-4.47v5.87h4.56c1.11,0,1.97-0.26,2.56-0.79
		c0.59-0.53,0.89-1.23,0.89-2.1V474.83z"/>
	<polygon class="st2" points="224.47,488.3 224.47,467.85 239.86,467.85 239.86,471.85 228.91,471.85 228.91,476 238.55,476 
		238.55,480 228.91,480 228.91,484.3 240.01,484.3 240.01,488.3 	"/>
	<path class="st2" d="M282.75,488.3l-1.87-4.59h-8.65l-1.87,4.59h-4.58l8.76-20.6h4.15l8.77,20.6H282.75z M276.56,473.11l-2.72,6.63
		h5.44L276.56,473.11z"/>
	<polygon class="st2" points="314.1,488.3 314.1,467.85 318.6,467.85 318.6,484.24 328.8,484.24 328.8,488.3 	"/>
	<polygon class="st2" points="387.93,488.3 387.93,467.85 403.33,467.85 403.33,471.85 392.37,471.85 392.37,476 402.01,476 
		402.01,480 392.37,480 392.37,484.3 403.47,484.3 403.47,488.3 	"/>
	<path class="st2" d="M445.23,484.95c-0.37,0.79-0.88,1.45-1.54,1.99c-0.66,0.54-1.45,0.95-2.36,1.23
		c-0.91,0.28-1.93,0.43-3.03,0.43c-1.56,0-3.09-0.27-4.59-0.8c-1.5-0.53-2.87-1.36-4.09-2.47l2.66-3.19
		c0.94,0.76,1.9,1.36,2.88,1.81c0.98,0.45,2.06,0.67,3.23,0.67c0.94,0,1.66-0.17,2.18-0.51c0.51-0.34,0.77-0.81,0.77-1.42v-0.06
		c0-0.29-0.06-0.55-0.16-0.77c-0.11-0.22-0.32-0.43-0.61-0.63c-0.3-0.2-0.72-0.39-1.26-0.59c-0.54-0.2-1.24-0.4-2.1-0.61
		c-1.03-0.25-1.97-0.53-2.81-0.85c-0.84-0.31-1.55-0.69-2.14-1.15c-0.59-0.46-1.04-1.03-1.36-1.71c-0.32-0.68-0.48-1.53-0.48-2.54
		v-0.06c0-0.93,0.17-1.78,0.52-2.53c0.35-0.75,0.84-1.39,1.47-1.94c0.63-0.55,1.38-0.96,2.25-1.26c0.87-0.29,1.84-0.44,2.88-0.44
		c1.5,0,2.88,0.22,4.14,0.67c1.26,0.45,2.41,1.09,3.46,1.93l-2.33,3.39c-0.92-0.62-1.82-1.12-2.69-1.48
		c-0.88-0.36-1.76-0.54-2.63-0.54c-0.88,0-1.53,0.17-1.97,0.51c-0.44,0.34-0.66,0.76-0.66,1.27v0.06c0,0.33,0.06,0.62,0.19,0.86
		c0.13,0.25,0.36,0.46,0.69,0.66c0.33,0.2,0.78,0.38,1.36,0.56c0.58,0.18,1.3,0.38,2.18,0.61c1.03,0.27,1.95,0.58,2.77,0.92
		c0.81,0.34,1.49,0.75,2.05,1.22c0.56,0.48,0.98,1.04,1.26,1.68c0.28,0.64,0.43,1.41,0.43,2.31v0.06
		C445.78,483.26,445.6,484.16,445.23,484.95"/>
	<polygon class="st2" points="482.44,472 482.44,488.3 477.95,488.3 477.95,472 471.72,472 471.72,467.85 488.66,467.85 488.66,472 
			"/>
	<path class="st2" d="M530.83,488.3l-1.87-4.59h-8.65l-1.87,4.59h-4.58l8.76-20.6h4.15l8.77,20.6H530.83z M524.63,473.11l-2.72,6.63
		h5.44L524.63,473.11z"/>
	<polygon class="st2" points="571.44,472 571.44,488.3 566.94,488.3 566.94,472 560.72,472 560.72,467.85 577.66,467.85 577.66,472 
			"/>
	<polygon class="st2" points="604.6,488.3 604.6,467.85 619.99,467.85 619.99,471.85 609.04,471.85 609.04,476 618.68,476 
		618.68,480 609.04,480 609.04,484.3 620.14,484.3 620.14,488.3 	"/>
</g>
</svg>
